<svg id="Layer_1" data-name="Layer 1" xmlns="http://www.w3.org/2000/svg" viewBox="0 0 32.58 31.77"><title>github</title><path d="M19,2.69A16.29,16.29,0,0,0,13.9,34.44c.81.15,1.11-.35,1.11-.79s0-1.41,0-2.77c-4.53,1-5.49-2.18-5.49-2.18a4.31,4.31,0,0,0-1.81-2.38c-1.48-1,.11-1,.11-1A3.42,3.42,0,0,1,10.3,27,3.47,3.47,0,0,0,15,28.36a3.48,3.48,0,0,1,1-2.18c-3.62-.41-7.42-1.81-7.42-8.05a6.3,6.3,0,0,1,1.68-4.37,5.86,5.86,0,0,1,.16-4.31S11.86,9,15,11.12a15.44,15.44,0,0,1,8.16,0C26.24,9,27.6,9.45,27.6,9.45a5.85,5.85,0,0,1,.16,4.31,6.29,6.29,0,0,1,1.67,4.37c0,6.26-3.81,7.63-7.44,8a3.89,3.89,0,0,1,1.11,3c0,2.18,0,3.93,0,4.47s.29.94,1.12.78A16.29,16.29,0,0,0,19,2.69Z" transform="translate(-2.76 -2.69)" fill-rule="evenodd"/></svg>