<svg id="Layer_1" data-name="Layer 1" xmlns="http://www.w3.org/2000/svg" viewBox="0 0 136.07 110.58"><title>twitter</title><path d="M139.68,16.19a55.8,55.8,0,0,1-16,4.4A28,28,0,0,0,135.92,5.15a55.9,55.9,0,0,1-17.73,6.77A27.94,27.94,0,0,0,70.63,37.38,79.25,79.25,0,0,1,13.09,8.21a27.94,27.94,0,0,0,8.64,37.27A27.82,27.82,0,0,1,9.08,42c0,.12,0,.23,0,.35A27.93,27.93,0,0,0,31.47,69.71a27.93,27.93,0,0,1-12.61.48A27.94,27.94,0,0,0,44.94,89.58a56,56,0,0,1-34.67,12,56.37,56.37,0,0,1-6.66-.39,79,79,0,0,0,42.79,12.54c51.35,0,79.43-42.54,79.43-79.43q0-1.82-.08-3.61A56.74,56.74,0,0,0,139.68,16.19Z" transform="translate(-3.62 -3.1)"/></svg>